<svg id="Layer_1" data-name="Layer 1" xmlns="http://www.w3.org/2000/svg" xmlns:xlink="http://www.w3.org/1999/xlink" viewBox="0 0 346 508.52"><defs><style>.cls-1{fill:url(#linear-gradient);}</style><linearGradient id="linear-gradient" x1="258" y1="512.26" x2="258" y2="3.74" gradientUnits="userSpaceOnUse"><stop offset="0" stop-color="#0e5cad"/><stop offset="1" stop-color="#79f1a4"/></linearGradient></defs><title>WaterDrop</title><path class="cls-1" d="M347.26,487.51A173,173,0,0,1,109.77,250.07l80-132.91,25.76-42.8c6.88,11.78,15.6,26.72,25.15,43.11,32.94,56.42,75.66,129.63,86.08,148,27.34,48,49,110.26-26.42,166.38,19.54-41,15.95-77.72,4.56-109.35-3.29-10.91-8.94-22.56-16.21-35.4L283.47,278c-13.32-23.09-42.27-72.81-68.56-117.76l-67.6,112.32a129.34,129.34,0,0,0,0,133.31c36.76,61,116.27,80.83,177.34,44.07s80.83-116.27,44.07-177.34L282.6,129.55l-1.23-2.06-48.5-82L258,3.74,406.27,250.07C455.46,331.77,429,438.31,347.26,487.51Z" transform="translate(-85 -3.74)"/></svg>